<?xml version="1.0" standalone="no"?>
<!DOCTYPE svg PUBLIC "-//W3C//DTD SVG 20010904//EN"
 "http://www.w3.org/TR/2001/REC-SVG-20010904/DTD/svg10.dtd">
<svg version="1.0" xmlns="http://www.w3.org/2000/svg"
 width="460.000000pt" height="460.000000pt" viewBox="0 0 460.000000 460.000000"
 preserveAspectRatio="xMidYMid meet">
<metadata>
Created by potrace 1.11, written by Peter Selinger 2001-2013
</metadata>
<g transform="translate(0.000000,460.000000) scale(0.100000,-0.100000)"
fill="#000000" stroke="none">
<path d="M550 3885 l0 -95 -90 0 -90 0 0 -925 0 -925 95 0 95 0 0 -80 0 -80
365 0 365 0 0 -85 0 -85 -555 0 -555 0 0 -465 0 -465 375 0 375 0 0 -85 0 -85
1755 0 1755 0 0 185 0 185 -85 0 -85 0 0 90 0 90 -190 0 -190 0 0 275 0 275
-375 0 -375 0 0 85 0 85 185 0 185 0 0 80 0 80 100 0 100 0 0 1020 0 1020
-1580 0 -1580 0 0 -95z"/>
</g>
</svg>
